<?xml version="1.0" encoding="utf-8"?>
<!-- Generator: Adobe Illustrator 23.1.0, SVG Export Plug-In . SVG Version: 6.00 Build 0)  -->
<svg version="1.1" id="Слой_1" xmlns="http://www.w3.org/2000/svg" xmlns:xlink="http://www.w3.org/1999/xlink" x="0px" y="0px"
	 viewBox="0 0 150 150" style="enable-background:new 0 0 150 150;" xml:space="preserve">
<style type="text/css">
	.st0{fill:#1C7BC0;}
</style>
<g>
	<image style="overflow:visible;" width="274" height="245" xlink:href="2159AF1.png"  transform="matrix(0.24 0 0 0.24 64.56 0)">
	</image>
	<image style="overflow:visible;" width="189" height="168" xlink:href="2159AF3.png"  transform="matrix(0.24 0 0 0.24 25.92 0)">
	</image>
	
		<image style="overflow:visible;" width="324" height="220" xlink:href="2159AF6.png"  transform="matrix(0.24 0 0 0.24 21.6 56.16)">
	</image>
	
		<image style="overflow:visible;" width="208" height="221" xlink:href="2159AF7.png"  transform="matrix(0.24 0 0 0.24 81.12 55.92)">
	</image>
</g>
<g>
	<path class="st0" d="M21.5,125.2c-0.9-0.1-2.7-0.4-4.8-0.1c-2.6,0.3-4.9,1.3-5.5,1.9l2.3,3.2c7.2-2.5,10-0.9,9.6,4.8v0.3h-5.3
		c-2.9,0-5.1,0.6-6.4,1.9c-1.4,1.3-2,3.3-2,5.4c0,1.3,0.3,2.9,0.9,4c0.6,1.1,1.5,1.9,2.7,2.5c1.1,0.6,2.5,0.9,4,0.9
		c3.4,0,10.9,0.3,10.9-8.3c0-3,0-6.4,0-6.4C27.8,129.3,26.9,125.8,21.5,125.2z M17.9,146c-1.2,0-2.2-0.3-2.9-0.9
		c-0.7-0.6-1-1.8-1-2.8c0-2.1,1.4-3.5,4.1-3.5H23c0,0,0,2,0,3.1c0,1.1-1,2.5-2,3.1C20.1,145.7,19.1,146,17.9,146L17.9,146z"/>
	<path class="st0" d="M43.8,149.7h6.9l-9.2-12.1l8.9-12H44l-7.5,10.3h0l-0.1-10.3h-5.1v24.2l5.2,0v-10.6h-0.1L43.8,149.7z"/>
	<path class="st0" d="M63.5,125.6h-8.9v24.2c0,0,3.6,0,10,0c8.7,0,11.4-10.4,4.4-13.4C71.9,136.6,74.7,125.6,63.5,125.6z
		 M58.9,129.4h4.7c4.6,0,4.6,6.4,0,6.4h-4.7V129.4z M64.4,145.9c-5.2,0-5.6,0-5.6,0v-7.6h5.6C69.5,138.3,69.6,145.9,64.4,145.9z"/>
	<path class="st0" d="M119.6,125.6H99.2v5.1h7.6l0.1,18.9h4.8v-19l7.8,0V125.6z"/>
	<path class="st0" d="M84.8,149.8c1.4,0,2.7-0.3,3.9-0.8c1.1-0.5,2.1-1.3,2.8-2.4v2.9h4.3v-23.9h-4.5v12.7c0,2.2-0.5,3.9-1.5,5.1
		c-1,1.2-2.3,1.8-4,1.8c-1.5,0-2.6-0.5-3.4-1.5c-0.8-1-1.2-2.5-1.2-4.5v-13.6h-4.5v14.2c0,3.3,0.7,5.8,2.2,7.4
		C80.4,148.9,82.4,149.8,84.8,149.8L84.8,149.8z"/>
	<path class="st0" d="M134.4,125.2c-0.9-0.1-2.7-0.4-4.8-0.1c-2.6,0.3-4.9,1.3-5.5,1.9l2.3,3.2c7.2-2.5,10-0.9,9.6,4.8v0.3h-5.3
		c-2.9,0-5.1,0.6-6.4,1.9c-1.4,1.3-2,3.3-2,5.4c0,1.3,0.3,2.9,0.9,4c0.6,1.1,1.5,1.9,2.7,2.5c1.1,0.6,2.5,0.9,4,0.9
		c3.4,0,10.9,0.3,10.9-8.3c0-3,0-6.4,0-6.4C140.7,129.3,139.9,125.8,134.4,125.2z M130.8,146c-1.2,0-2.2-0.3-2.9-0.9
		c-0.7-0.6-1-1.8-1-2.8c0-2.1,1.4-3.5,4.1-3.5h4.9c0,0,0,2,0,3.1c0,1.1-1,2.5-2,3.1C133,145.7,132,146,130.8,146L130.8,146z"/>
</g>
</svg>
